<?xml version="1.0" standalone="no"?>
<!DOCTYPE svg PUBLIC "-//W3C//DTD SVG 1.1//EN" "http://www.w3.org/Graphics/SVG/1.1/DTD/svg11.dtd" >
<svg xmlns="http://www.w3.org/2000/svg">
<metadata></metadata>
<defs>
<font id="ac_blisslight" horiz-adv-x="1054" >
<font-face units-per-em="2048" ascent="1571" descent="-477" />
<missing-glyph horiz-adv-x="512" />
<glyph horiz-adv-x="0" />
<glyph unicode="&#xd;" horiz-adv-x="681" />
<glyph horiz-adv-x="0" />
<glyph horiz-adv-x="0" />
<glyph unicode=" "  horiz-adv-x="512" />
<glyph unicode="&#x09;" horiz-adv-x="512" />
<glyph unicode="&#xa0;" horiz-adv-x="512" />
<glyph unicode="!" horiz-adv-x="569" d="M175 92q1 47 32 80q33 35 79 35t79 -35q31 -35 31.5 -81t-31.5 -81q-31 -33 -79 -34t-79 34q-33 35 -32 82zM211 1227v123h154v-125q0 -186 -3.5 -316.5t-7.5 -208.5q-8 -158 -37 -358h-61q-29 195 -37 352q-4 78 -6 210t-2 323z" />
<glyph unicode="&#x22;" horiz-adv-x="704" d="M125 1450h160l-23 -436h-110zM424 1450h160l-23 -436h-110z" />
<glyph unicode="#" horiz-adv-x="1351" d="M74 369v135h293l77 364h-264v136h293l74 346h149l-73 -346h239l74 346h149l-73 -346h270v-136h-299l-78 -364h271v-135h-299l-78 -369h-150l78 369h-240l-77 -369h-150l78 369h-264zM516 504h240l78 364h-240z" />
<glyph unicode="$" d="M150 129l69 123q125 -88 275 -88q49 0 94 12t78.5 36t54 58.5t20.5 81.5q0 74 -51 133.5t-119 94.5q-33 16 -70.5 38.5l-82.5 49.5q-43 27 -77 53.5t-58 52.5q-96 109 -97 242q0 117 78 200.5t213 104.5v190h139v-186q131 -10 226 -59v-158q-129 86 -279 86 q-100 0 -164.5 -45t-64.5 -133q0 -66 42 -113t105.5 -89t137 -83t137 -92t105.5 -119t42 -162q0 -129 -86 -213t-229 -108v-197h-139v193q-170 10 -299 96z" />
<glyph unicode="%" horiz-adv-x="1673" d="M125 1004q0 172 90 268t225 96q136 0 222 -96t86 -266q0 -172 -91 -269q-90 -96 -225 -96t-221 94t-86 269zM274 1008q0 -256 166 -256q158 0 158 252q0 254 -166 253q-76 0 -117 -65.5t-41 -183.5zM301 -41l913 1425h162l-913 -1425h-162zM930 344q0 172 90 268t225 97 q135 -1 221 -97t86 -266q0 -172 -90 -268t-225 -96t-221 94t-86 268zM1079 348q0 -256 166 -256q158 0 158 252q0 254 -166 254q-76 0 -117 -65.5t-41 -184.5z" />
<glyph unicode="&#x26;" horiz-adv-x="1445" d="M115 358q0 141 75.5 235.5t229.5 156.5q-94 104 -127 165q-20 35 -28.5 76t-8.5 88q0 119 94 201q96 84 242 84q74 0 134 -21.5t103 -59.5t67 -92t24 -118q0 -119 -72 -203t-213 -157q55 -68 168 -187q57 -59 104 -106t88 -82q35 35 67 78t62 90q33 47 51.5 87t26.5 71 l129 -31q-45 -172 -241 -381q182 -176 296 -148l31 -94q-41 -23 -108 -22q-125 0 -326 176q-211 -186 -469 -187q-186 0 -293 113q-106 113 -106 268zM274 369q0 -113 75 -186.5t204 -73.5q78 0 169 35.5t163 101.5q-82 76 -201 200q-59 63 -104 114.5t-80 92.5 q-125 -51 -175.5 -120.5t-50.5 -163.5zM403 1077q0 -31 7.5 -57.5t25 -57t46 -68.5t71.5 -89q219 109 219 254q0 33 -10 64.5t-33.5 56t-58.5 40t-84 15.5q-88 0 -135.5 -49t-47.5 -109z" />
<glyph unicode="'" horiz-adv-x="405" d="M125 1450h160l-23 -436h-110z" />
<glyph unicode="(" horiz-adv-x="634" d="M156 549q0 645 319 1038l109 -71q-150 -223 -209 -422q-59 -207 -60 -545q0 -172 14.5 -306t45.5 -235q31 -100 84 -205.5t127 -216.5l-111 -71q-319 393 -319 1034z" />
<glyph unicode=")" horiz-adv-x="634" d="M53 -414q76 113 127 217.5t82 204.5q29 98 45.5 232.5t16.5 308.5q0 338 -60 545q-59 199 -209 422l109 71q319 -393 319 -1038q0 -641 -319 -1034z" />
<glyph unicode="*" horiz-adv-x="983" d="M135 950q37 20 152 68q55 23 89 37t48 22q-12 6 -46 19.5t-89 36.5q-53 23 -92 40t-62 31l70 121q20 -12 53 -37.5t78 -60.5q92 -74 119 -88q0 14 -4.5 50t-12.5 93q-8 59 -11 100t-3 68h139q0 -25 -4 -66t-12 -100l-19 -141q23 10 119 86q47 35 80 59.5t53 36.5l70 -121 q-23 -14 -60.5 -30.5t-95.5 -38.5l-131 -54q27 -16 135 -61q106 -43 154 -68l-72 -121q-23 12 -55.5 38t-79.5 61l-115 88q0 -14 3.5 -50t13.5 -96q18 -115 18 -165l-137 -2q-2 27 2 69.5t12 102.5l19 139q-14 -8 -44 -30.5t-77 -59.5q-47 -35 -80 -59.5t-53 -37.5z" />
<glyph unicode="+" horiz-adv-x="1282" d="M156 451v139h413v440h150v-440h407v-139h-407v-451h-150v451h-413z" />
<glyph unicode="," horiz-adv-x="405" d="M74 -195q49 98 60 191.5t-7 204.5l158 35q49 -283 -135 -480z" />
<glyph unicode="-" horiz-adv-x="743" d="M104 438v135h539v-135h-539z" />
<glyph unicode="." horiz-adv-x="405" d="M97 92q1 47 32 80q33 35 79 35t79 -35q31 -35 31.5 -81t-31.5 -81q-31 -33 -79 -34t-79 34q-33 35 -32 82z" />
<glyph unicode="/" horiz-adv-x="706" d="M23 -66l520 1491h145l-520 -1491h-145z" />
<glyph unicode="0" d="M63 668q0 328 127 510q129 182 340 182q207 0 334 -182t127 -510q0 -326 -131 -506q-133 -182 -342 -182q-104 0 -188 46t-143.5 135t-91.5 216t-32 291zM215 688q0 -274 88 -424q88 -154 229 -153q145 0 226 153q82 156 82 389q0 266 -90 424q-90 154 -228 154 q-145 0 -227 -156q-80 -154 -80 -387z" />
<glyph unicode="1" d="M229 1159l394 201h116v-1360h-145v1196l-322 -156z" />
<glyph unicode="2" d="M104 0q16 158 58 274q43 123 102.5 200t126.5 138q68 61 134.5 106.5t120.5 89.5t87 95t33 123q0 100 -63.5 149.5t-167.5 49.5q-170 0 -334 -97l-51 123q195 109 405 109q88 0 157.5 -24.5t117 -68.5t72 -103.5t24.5 -129.5q0 -100 -43 -180q-41 -80 -105.5 -130 t-142.5 -110l-150 -114q-72 -55 -127 -149.5t-73 -213.5l633 10v-147h-814z" />
<glyph unicode="3" d="M96 47l45 119q137 -61 312 -62q135 0 235 70q102 72 103 195q0 125 -85 186t-272 61h-168v132l137 4q354 10 355 266q0 92 -66.5 150.5t-177.5 58.5q-162 0 -338 -97l-43 119q211 111 399 111q88 0 159 -24.5t119 -69.5t73.5 -105.5t25.5 -130.5q0 -113 -58 -195.5 t-157 -127.5v-2q113 -18 183.5 -99.5t70.5 -210.5q0 -182 -133 -299t-383 -116q-193 0 -336 67z" />
<glyph unicode="4" d="M86 356v121l653 883h95v-866h200v-138h-200v-360h-146v360h-602zM252 487h96q37 0 62.5 1t40.5 1l235 5l2 395q0 88 6 198z" />
<glyph unicode="5" d="M139 35l47 123q94 -51 254 -52q147 0 242 76q98 76 98 211q0 283 -374 283h-177v670h711l-35 -146l-530 8v-399q289 20 426 -98q137 -117 137 -299q0 -188 -133 -312q-133 -121 -385 -120q-174 0 -281 55z" />
<glyph unicode="6" d="M72 606q0 311 157 533q156 221 420 221q137 0 256 -53l-45 -127q-100 51 -196 51q-174 0 -293 -135q-117 -135 -131 -361q176 109 321 109q174 0 297 -111q123 -110 123 -307q0 -205 -123 -330q-123 -123 -311 -123q-213 0 -344 156t-131 477zM233 598q-8 -215 80 -352 q90 -139 238 -140q123 0 199.5 81.5t76.5 228.5q0 68 -20.5 121t-57 91t-86 58.5t-106.5 20.5q-160 0 -324 -109z" />
<glyph unicode="7" d="M168 1350h844v-68q-469 -678 -568 -1286h-151q86 561 518 1225l-608 -11z" />
<glyph unicode="8" d="M70 350q0 236 247 342v2q-193 117 -192 312q0 154 113 254t313 100q197 0 295 -105q98 -104 98 -239q0 -195 -211 -324v-2q254 -86 254 -336q0 -162 -129 -268q-125 -106 -340 -106q-217 0 -332.5 95t-115.5 275zM223 354q0 -123 85 -187.5t220 -64.5q123 0 213 68 q88 67 88 180q0 59 -26.5 106.5t-73.5 83t-112.5 59.5t-145.5 36q-90 -27 -170 -100q-78 -72 -78 -181zM274 1018q0 -213 312 -281q200 115 200 275q0 45 -17 87t-50 72.5t-79 49t-103 18.5q-117 0 -190 -61.5t-73 -159.5z" />
<glyph unicode="9" d="M86 913q0 190 121 318q119 129 309 129q217 0 340 -162t123 -477q0 -342 -154 -541q-152 -201 -419 -200q-156 0 -289 57l45 129q115 -57 248 -57q92 0 165.5 35.5t128 102t85 162t34.5 216.5h-2q-160 -129 -325 -129q-160 0 -287 102q-123 100 -123 315zM240 932 q0 -141 72.5 -221t209.5 -80q92 0 172 44t123 105q0 104 -22.5 187.5t-62.5 142.5t-96 91t-124 32q-129 0 -200.5 -83t-71.5 -218z" />
<glyph unicode=":" horiz-adv-x="405" d="M97 92q1 47 32 80q33 35 79 35t79 -35q31 -35 31.5 -81t-31.5 -81q-31 -33 -79 -34t-79 34q-33 35 -32 82zM97 817q1 47 32 80q33 35 79 35t79 -35q31 -35 31.5 -81t-31.5 -81q-31 -33 -79 -34t-79 34q-33 35 -32 82z" />
<glyph unicode=";" horiz-adv-x="405" d="M74 -195q49 98 60 191.5t-7 204.5l158 35q49 -283 -135 -480zM97 817q1 47 32 80q33 35 79 35t79 -35q31 -35 31.5 -81t-31.5 -81q-31 -33 -79 -34t-79 34q-33 35 -32 82z" />
<glyph unicode="&#x3c;" horiz-adv-x="1282" d="M156 465v135l888 397v-153l-622 -269l-115 -40v-5l115 -41l622 -268v-153z" />
<glyph unicode="=" horiz-adv-x="1282" d="M156 272v140h970v-140h-970zM156 633v139h970v-139h-970z" />
<glyph unicode="&#x3e;" horiz-adv-x="1282" d="M238 68v153l622 268l115 41v5l-115 40l-622 269v153l888 -397v-135z" />
<glyph unicode="?" horiz-adv-x="933" d="M135 1227q145 158 367 157q143 0 227 -76.5t84 -211.5q0 -98 -65 -195q-63 -86 -144 -145q-78 -53 -143 -113q-66 -59 -66 -102t19.5 -70t42.5 -55l-105 -86q-102 96 -102 209q0 78 63 147q63 74 142 123q41 27 75.5 58.5t65.5 66.5q66 78 66 158q0 78 -49.5 121.5 t-129.5 43.5q-141 0 -274 -127zM300 92q1 47 32 80q33 35 78.5 35t78.5 -35q31 -35 32 -81t-32 -81q-31 -33 -79 -34t-78 34q-33 35 -32 82z" />
<glyph unicode="@" horiz-adv-x="1589" d="M94 618q0 350 205 562q205 215 518 215q293 0 488 -178q194 -178 194 -461q0 -229 -96 -348t-258 -119q-78 0 -131 47t-64 123h-2q-25 -55 -104 -111q-80 -55 -170 -55q-104 0 -173 76.5t-69 246.5q0 197 119 322q121 127 293 127q139 0 276 -88l-47 -344 q-20 -84 -2 -158q18 -70 94 -69q86 0 139.5 97t53.5 257q0 205 -146 356q-145 154 -399 154q-258 0 -418 -174q-158 -176 -157 -473q0 -262 135 -410q137 -147 356 -147q166 0 260 51l49 -121q-141 -55 -325 -55q-283 0 -451 184q-168 186 -168 493zM575 612 q0 -195 130 -194q31 0 69.5 12t76.5 47t67.5 100.5t39.5 170.5l17 155q-70 45 -139 45q-109 0 -185 -94t-76 -242z" />
<glyph unicode="A" horiz-adv-x="1187" d="M39 0l516 1354h84l518 -1354h-158l-139 360h-543l-129 -360h-149zM373 494h434l-160 456q-37 106 -51 168h-2q-8 -31 -20.5 -71.5t-32.5 -94.5z" />
<glyph unicode="B" horiz-adv-x="1075" d="M176 0v1350h377q172 0 262 -99q90 -102 90 -227q0 -104 -47 -183t-139 -116v-2q100 -14 184 -109q82 -88 82 -219q0 -147 -98 -266q-51 -59 -147.5 -94t-225.5 -35h-338zM326 139h200q141 0 218 70.5t77 181.5q0 49 -20.5 91t-57 74t-89 49.5t-115.5 17.5h-213v-484z M326 760h174q96 0 170 61q73 63 73 174q0 215 -245 215h-172v-450z" />
<glyph unicode="C" horiz-adv-x="1189" d="M94 659q0 297 189 498q186 203 483 203q217 0 344 -80v-160q-164 104 -350 105q-223 0 -365 -160q-141 -158 -141 -395q0 -246 135 -400q134 -153 366 -153h3q160 0 317 86l45 -123q-180 -100 -379 -100q-297 0 -471 190q-176 195 -176 489z" />
<glyph unicode="D" horiz-adv-x="1294" d="M176 0v1350h293q369 0 551 -183q184 -182 184 -479q0 -303 -184 -495q-180 -193 -543 -193h-301zM326 139h166q291 0 423 154q136 153 136 397q0 225 -142 373q-141 147 -413 147h-170v-1071z" />
<glyph unicode="E" horiz-adv-x="954" d="M176 0v1350h662l-58 -140h-454v-450h450v-137h-450v-484h518v-139h-668z" />
<glyph unicode="F" horiz-adv-x="937" d="M176 0v1350h662l-58 -140h-454v-456h450v-138h-450v-616h-150z" />
<glyph unicode="G" horiz-adv-x="1359" d="M94 653q0 317 195 512t510 195q219 0 375 -82v-162q-195 104 -383 105q-252 0 -396 -150q-141 -152 -141 -397q0 -129 38 -232.5t108.5 -175t172 -109.5t228.5 -38q166 0 258 55v477h149v-565q-193 -106 -442 -106q-299 0 -485 186t-187 487z" />
<glyph unicode="H" horiz-adv-x="1386" d="M176 0v1350h150v-596h739v596h149v-1350h-149v616h-739v-616h-150z" />
<glyph unicode="I" horiz-adv-x="497" d="M176 0v1350h150v-1350h-150z" />
<glyph unicode="J" horiz-adv-x="600" d="M-37 -352l29 127q49 -16 110 -17q100 0 138.5 73t38.5 222v1297h149v-1297q0 -106 -16.5 -186t-55.5 -132t-104.5 -79t-163.5 -27q-74 0 -125 19z" />
<glyph unicode="K" horiz-adv-x="1093" d="M176 0v1350h150v-621h2l501 617h187l-555 -664l604 -682h-199l-538 610h-2v-610h-150z" />
<glyph unicode="L" horiz-adv-x="862" d="M176 0v1350h150v-1211h512v-139h-662z" />
<glyph unicode="M" horiz-adv-x="1622" d="M176 0v1350h154l426 -643q23 -35 40 -66t27 -53h2q14 29 29.5 59.5t34.5 59.5l405 643h156v-1350h-150v975q0 72 7 143h-4q-10 -27 -26.5 -60.5t-41.5 -72.5l-363 -584h-98l-383 584q-20 29 -37.5 62.5t-31.5 70.5h-5q4 -35 6.5 -70.5t2.5 -72.5v-975h-150z" />
<glyph unicode="N" horiz-adv-x="1462" d="M176 0v1350h156l655 -877q125 -170 154 -227h4q-2 45 -3 86t-1 78v940h149v-1350h-139l-684 909q-57 76 -92 129.5t-49 81.5h-4q2 -45 3 -86t1 -78v-956h-150z" />
<glyph unicode="O" horiz-adv-x="1519" d="M94 668q0 303 191 499q186 193 477 193q309 0 498 -213q170 -194 170 -479q0 -315 -203 -512q-182 -176 -465 -176q-276 0 -457 167q-211 193 -211 521zM256 668q0 -254 135 -402q135 -147 371 -147q233 0 368 147q138 150 138 402q0 244 -133 395q-133 154 -373 154 q-233 0 -371 -150q-135 -147 -135 -399z" />
<glyph unicode="P" horiz-adv-x="987" d="M176 0v1350h277q211 0 332.5 -110.5t121.5 -309.5q0 -186 -119 -312q-118 -124 -346 -124h-4h-112v-494h-150zM326 629h127q147 0 219.5 81t72.5 222q0 129 -77.5 203.5t-227.5 74.5h-114v-581z" />
<glyph unicode="Q" horiz-adv-x="1519" d="M94 668q0 305 191 499q186 193 477 193q272 0 457 -172q211 -192 211 -520q0 -311 -201 -508q-178 -172 -443 -187q86 -88 163 -128t188 -40q94 0 166 31l32 -117q-88 -38 -230 -38h-7q-164 0 -277 81q-117 86 -229 232q-178 43 -297 162q-201 197 -201 512zM256 668 q0 -254 135 -402q135 -147 371 -147q233 0 368 147q138 150 138 402q0 244 -133 395q-133 154 -373 154q-233 0 -371 -150q-135 -147 -135 -399z" />
<glyph unicode="R" horiz-adv-x="1081" d="M176 0v1350h279q225 0 335.5 -100.5t110.5 -264.5q0 -135 -73.5 -229t-190.5 -135v-3q12 -8 43 -47t76 -106l100 -156l59 -94l68 -104l70 -111h-179q-14 23 -32.5 51.5l-37 57t-34.5 55t-29 45.5l-106 168q-20 31 -42 66.5t-40 52.5q-25 35 -46.5 54t-35.5 23h-145v-573 h-150zM326 707h137q113 0 196 77q80 76 80 185t-66.5 175t-217.5 66h-129v-503z" />
<glyph unicode="S" horiz-adv-x="978" d="M94 86l72 121q131 -94 295 -94q104 0 186 51t82 151q0 82 -55.5 148.5t-126.5 105.5q-35 20 -76 44t-88 53q-84 53 -143 114q-96 102 -97 244q0 74 27 135.5t78 106.5t122.5 69.5t161.5 24.5q172 0 299 -66v-159q-125 88 -294 88q-106 0 -176 -46.5t-70 -138.5 q0 -82 61.5 -148.5t149.5 -115.5q63 -37 131.5 -78t125 -93t93.5 -118.5t37 -154.5q0 -156 -121 -254q-121 -96 -305 -96q-213 0 -369 106z" />
<glyph unicode="T" horiz-adv-x="1026" d="M45 1210v140h973l-53 -140h-383v-1210h-150v1210h-387z" />
<glyph unicode="U" horiz-adv-x="1353" d="M176 485v865h150v-867q0 -180 96 -280q88 -88 246 -88q92 0 158.5 21.5t109.5 68.5q84 88 84 266v879h149v-899q0 -213 -122 -338q-133 -133 -383 -133q-231 0 -357 118q-131 129 -131 387z" />
<glyph unicode="V" horiz-adv-x="1255" d="M33 1350h160l346 -899l75 -209h4q16 49 36 101t42 108l375 899h156l-578 -1356h-84z" />
<glyph unicode="W" horiz-adv-x="1861" d="M33 1350h162l301 -901q27 -78 42 -130.5l23 -80.5h4q4 18 22.5 69t49.5 137l233 639l-92 267h158l309 -893q8 -23 17.5 -51.5l19.5 -58.5t19.5 -55.5t15.5 -43.5h4q10 45 25.5 95t33.5 108l295 899h158l-461 -1356h-108l-248 696q-20 55 -36.5 107.5t-33.5 103.5h-4 q-10 -35 -27.5 -87t-44.5 -124l-258 -696h-110z" />
<glyph unicode="X" horiz-adv-x="1179" d="M33 0l475 686l-451 664h179l372 -557l369 557h174l-449 -668l443 -682h-172l-373 578l-395 -578h-172z" />
<glyph unicode="Y" horiz-adv-x="1093" d="M33 1350h164l239 -432q41 -74 72 -130.5t49 -95.5h4q33 76 113 226l233 432h158l-434 -809v-541h-150v545z" />
<glyph unicode="Z" horiz-adv-x="1128" d="M104 0l680 1212l-630 -6l-48 144h920l-676 -1213l709 4v-141h-955z" />
<glyph unicode="[" horiz-adv-x="567" d="M186 -475v2052h332v-127h-192v-1798h192v-127h-332z" />
<glyph unicode="\" horiz-adv-x="731" d="M33 1425h149l520 -1491h-149z" />
<glyph unicode="]" horiz-adv-x="567" d="M53 -348h193v1798h-193v127h332v-2052h-332v127z" />
<glyph unicode="^" horiz-adv-x="1282" d="M233 588l340 762h136l340 -762h-152l-213 495l-41 115h-4l-41 -115l-213 -495h-152z" />
<glyph unicode="_" horiz-adv-x="921" d="M0 -131h922v-123h-922v123z" />
<glyph unicode="`" horiz-adv-x="1095" d="M373 1389h207l182 -302h-137z" />
<glyph unicode="a" horiz-adv-x="942" d="M84 276q0 147 98.5 228.5t290.5 87.5l197 6v45q0 221 -209 221q-133 0 -254 -90l-62 109q153 110 339 110h3q332 0 332 -327v-295q0 -324 21 -371h-123l-39 94q-120 -114 -294 -114h-3q-123 0 -211 81q-86 82 -86 215zM233 287q0 -78 48.5 -128t140.5 -50q139 0 248 110 v246l-193 -6q-244 -10 -244 -172z" />
<glyph unicode="b" horiz-adv-x="1009" d="M135 41v1409h150v-502q109 45 219 45q180 0 303 -123t123 -352q0 -246 -152 -393q-152 -145 -372 -145q-178 0 -271 61zM285 135q53 -26 146 -26h7q143 0 242 116q100 119 100 287q0 154 -77.5 248t-219.5 94q-98 0 -198 -49v-670z" />
<glyph unicode="c" horiz-adv-x="862" d="M84 473q0 219 125 369q126 151 351 151h3q137 0 246 -61v-141q-113 71 -248 71h-4q-74 0 -134.5 -27.5t-101 -78.5t-63 -121t-22.5 -154q0 -82 22.5 -150.5t63 -117.5t99 -76.5t132.5 -27.5q127 0 242 71l47 -106q-143 -94 -307 -94q-213 0 -332 141q-119 143 -119 352z " />
<glyph unicode="d" horiz-adv-x="1021" d="M84 471q0 221 145 373q142 149 352 149h3q88 0 157 -16v473h150v-1401q-117 -69 -304 -69h-5q-219 0 -357 124q-141 125 -141 367zM236 481q0 -174 93 -274.5t279 -100.5q80 0 133 25v707q-65 24 -143 24h-6q-147 0 -252 -106q-104 -109 -104 -275z" />
<glyph unicode="e" horiz-adv-x="944" d="M84 504q0 211 109 350q111 139 284 139q186 0 286.5 -135t100.5 -364v-35h-620q0 -74 21.5 -137.5t62.5 -110.5t100 -73.5t137 -26.5q123 0 230 69l45 -102q-53 -43 -136 -70.5t-169 -27.5q-217 0 -334 151q-117 150 -117 373zM246 586h456q0 111 -59 194q-59 86 -164 86 q-53 0 -96 -21.5t-73.5 -59t-47 -89t-16.5 -110.5z" />
<glyph unicode="f" horiz-adv-x="616" d="M82 842v127h121v172q0 94 27.5 154.5t69.5 94t91 47t94 13.5q80 0 144 -33l-31 -121q-53 29 -117 29q-129 0 -129 -170v-186h252l-53 -127h-199v-842h-149v842h-121z" />
<glyph unicode="g" horiz-adv-x="968" d="M33 -197q0 145 184 242q-68 37 -67 119q0 92 110 184q-74 43 -117 122t-43 171q0 147 105 250q109 102 256 102q106 0 170 -32q14 -8 24 2q43 39 114 60q43 13 91 13q32 0 66 -6l-43 -135q-43 11 -77 11q-39 0 -65 -15q113 -100 113 -252q0 -158 -106 -258 q-104 -98 -275 -98q-76 0 -123 20q-49 -53 -49 -113q0 -37 68.5 -55t167.5 -29q72 -6 148.5 -20t140 -45t104.5 -82t41 -131q0 -66 -31 -123t-91.5 -99t-150.5 -66.5t-209 -24.5q-106 0 -191 21.5t-143.5 60t-90 92t-31.5 114.5zM188 -180q0 -78 86 -129t226 -51 q141 0 223 47t82 127q0 49 -36 81.5t-97 49.5q-61 16 -121 24q-31 4 -63.5 8.5t-63.5 7.5t-56.5 7t-39.5 8q-139 -86 -140 -180zM254 641q0 -104 61.5 -167.5t159.5 -63.5t160.5 59t62.5 170q0 100 -62.5 162.5t-160.5 62.5t-159.5 -61.5t-61.5 -161.5z" />
<glyph unicode="h" horiz-adv-x="1034" d="M135 0v1450h150v-596q182 139 338 139q57 0 108 -21.5t90 -64.5t60.5 -109.5t21.5 -158.5v-639h-149v602q0 113 -36 181.5t-138 68.5q-125 0 -295 -152v-700h-150z" />
<glyph unicode="i" horiz-adv-x="471" d="M131 1276q0 43 31 74t73.5 31t73.5 -31t31 -74t-31 -74t-73.5 -31t-73.5 31t-31 74zM162 0v969h149v-969h-149z" />
<glyph unicode="j" horiz-adv-x="493" d="M-100 -451l37 117q43 -26 100 -26h4q141 0 141 237v1092h150v-1110q0 -182 -77 -263t-202 -81q-94 0 -153 34zM184 1350q31 31 74 31t74 -31t31 -73l-1 -1q0 -43 -30 -74q-31 -31 -74 -31t-74 31t-31 73q0 43 31 75z" />
<glyph unicode="k" horiz-adv-x="872" d="M135 0v1450h150v-823h2l356 342h195l-426 -396l481 -573h-191l-415 504h-2v-504h-150z" />
<glyph unicode="l" horiz-adv-x="462" d="M135 158v1292h150v-1225q0 -68 17 -89t63 -21q27 0 51 6l18 -109q-61 -32 -125 -32h-4q-86 0 -128 48t-42 130z" />
<glyph unicode="m" horiz-adv-x="1638" d="M135 0v969h125l21 -117q178 141 348 141q88 0 150.5 -44t86.5 -118q174 162 355 162q125 0 205.5 -71.5t80.5 -231.5v-690h-149v639q0 111 -32 165t-124 54q-139 0 -307 -149q2 -6 2 -56v-653h-149v635q0 106 -35 164.5t-123 58.5q-59 0 -123 -27q-59 -27 -96 -53 t-86 -71v-707h-150z" />
<glyph unicode="n" horiz-adv-x="1034" d="M135 0v969h123l21 -115q96 72 173.5 105.5t172.5 33.5q117 0 197.5 -86t80.5 -256v-651h-149v596q0 256 -168 256q-131 0 -301 -152v-700h-150z" />
<glyph unicode="o" horiz-adv-x="1044" d="M84 485q0 242 135 383q119 125 303 125q188 0 307 -125q136 -141 136 -383q0 -248 -138 -385q-116 -120 -304 -120h-3q-188 0 -301 118q-135 137 -135 387zM236 489q0 -174 76.5 -277t211.5 -103t212 103t77 277t-77 275.5t-214 101.5q-135 0 -210.5 -101t-75.5 -276z " />
<glyph unicode="p" horiz-adv-x="1011" d="M135 -485v1413q194 65 314 65h4q223 0 351 -130.5t128 -366.5q0 -240 -146 -379q-143 -137 -340 -137q-86 0 -161 30v-495h-150zM285 147q76 -38 151 -38h4q154 0 247 103.5t93 281.5q0 180 -93 272t-236 92q-90 0 -166 -24v-687z" />
<glyph unicode="q" horiz-adv-x="1034" d="M84 465q0 238 154 383q158 145 370 145q162 0 295 -61v-1417h-149v542q-114 -77 -258 -77h-4q-168 0 -287 129q-121 133 -121 356zM238 467q0 -84 21.5 -149.5t59 -111.5t89 -70.5t110.5 -24.5q121 0 236 90v637q-57 26 -149 26h-7q-164 0 -262 -112q-98 -115 -98 -285z " />
<glyph unicode="r" horiz-adv-x="641" d="M135 0v969h123l21 -111q90 82 152.5 108.5t123.5 26.5q51 0 98 -28l-63 -146q-45 16 -92 17q-43 0 -105.5 -34t-107.5 -83v-719h-150z" />
<glyph unicode="s" horiz-adv-x="763" d="M41 53l57 117q106 -70 236 -70q90 0 147 39q29 18 42.5 46t14.5 57.5t-11.5 58.5t-32.5 51q-45 43 -110 71t-130 60q-66 33 -111 96.5t-45 157.5q0 111 81 183.5t241 72.5q135 0 244 -51v-131q-129 57 -238 57q-80 0 -130 -30.5t-50 -92.5q0 -53 32.5 -87.5t83 -61.5 t108.5 -52.5t108.5 -60t83 -87t32.5 -130.5q0 -145 -104 -215q-101 -71 -258 -71h-4q-162 0 -287 73z" />
<glyph unicode="t" horiz-adv-x="700" d="M43 842v127h158v213l149 51v-264h297l-53 -127h-244v-611q0 -118 92 -118h2q84 0 172 69l48 -106q-133 -96 -256 -96q-104 0 -155.5 54t-51.5 152v656h-158z" />
<glyph unicode="u" horiz-adv-x="1032" d="M135 319v650h150v-635q0 -225 188 -225q82 0 150.5 39.5t107.5 89.5v731h150v-563q0 -352 20 -406h-119l-39 100q-144 -120 -310 -120h-3q-119 0 -209 77q-86 76 -86 262z" />
<glyph unicode="v" horiz-adv-x="917" d="M16 969h154l276 -776h5l309 776h145l-401 -975h-119z" />
<glyph unicode="w" horiz-adv-x="1425" d="M16 969h152l238 -770h6l239 770h135l242 -772h6l234 772h145l-319 -975h-136l-241 782h-6l-240 -782h-131z" />
<glyph unicode="x" horiz-adv-x="909" d="M16 0l351 500l-322 469h174l254 -381l260 381h162l-330 -475l332 -494h-168l-270 403l-275 -403h-168z" />
<glyph unicode="y" horiz-adv-x="976" d="M-25 -451l37 117q61 -31 142 -31q203 0 301 355l-437 979h160l346 -793h6l265 793h149l-369 -1061q-80 -229 -184 -311q-100 -82 -239 -82q-90 0 -177 34z" />
<glyph unicode="z" horiz-adv-x="778" d="M43 0l473 842l-430 -4l-41 131h696l-458 -840l473 4v-133h-713z" />
<glyph unicode="{" horiz-adv-x="620" d="M94 496v127q29 2 44.5 4t37.5 14q47 23 47 117v440q0 162 71 251t247 124l30 -143q-111 -18 -152.5 -71.5t-41.5 -158.5v-389q0 -121 -40 -180.5t-91 -69.5v-4q51 -10 91 -69.5t40 -180.5v-389q0 -104 42 -157.5t152 -71.5l-30 -144q-176 35 -247 124t-71 251v440 q0 92 -47 117q-23 12 -38 14.5t-44 4.5z" />
<glyph unicode="|" horiz-adv-x="487" d="M174 -485v2082h139v-2082h-139z" />
<glyph unicode="}" horiz-adv-x="620" d="M53 -311q111 18 153 71.5t42 157.5v389q0 121 40 180.5t91 69.5v4q-51 10 -91 69.5t-40 180.5v389q0 104 -42 157.5t-153 72.5l31 143q176 -35 246.5 -124t70.5 -251v-440q0 -92 45 -117q25 -12 40.5 -14t43.5 -4v-127q-29 -2 -44 -4.5t-40 -14.5q-45 -25 -45 -117v-440 q0 -162 -70.5 -251t-246.5 -124z" />
<glyph unicode="~" horiz-adv-x="1282" d="M180 516q156 119 258 119q37 0 80 -10.5t92 -28.5l103 -39q80 -31 127 -31q41 0 75.5 18.5t102.5 67.5l82 -118q-156 -119 -258 -119q-37 0 -80 10t-92 29l-103 39q-80 31 -127 30q-41 0 -75.5 -18.5t-102.5 -67.5z" />
<glyph unicode="&#xa1;" horiz-adv-x="569" d="M175 879q1 47 32 79q33 35 79 35t79 -35q31 -35 31.5 -81t-31.5 -80q-31 -33 -79 -34t-79 34q-33 35 -32 82zM211 -256q0 190 2 322.5t6 209.5q8 158 37 353h61q29 -201 37 -359q4 -78 7.5 -208t3.5 -316v-127h-154v125z" />
<glyph unicode="&#xa2;" d="M156 668q0 86 24.5 163.5t70.5 141t111.5 107.5t149.5 63v190h139v-176q127 -2 205 -43v-137q-100 47 -219 47q-160 0 -248 -104q-90 -104 -90 -244q0 -152 90 -244q88 -92 229 -92q137 0 226 63l39 -106q-78 -72 -238 -86v-193h-139v199q-78 12 -141.5 51t-110.5 97.5 t-72.5 135.5t-25.5 167z" />
<glyph unicode="&#xa3;" d="M135 0v121q74 25 117 125q45 102 55 192t10 189h-155v133h155v168q0 111 31 191.5t74 125.5q74 74 157 94.5t144 20.5q106 0 195 -41l-31 -121q-66 37 -152 37q-115 0 -190 -70q-78 -72 -78 -243v-162h387l-53 -133h-334q-2 -78 -10 -151t-23 -142q-31 -139 -96 -199v-2 q45 6 184 6h389v-139h-776z" />
<glyph unicode="&#xa4;" d="M20 909l99 99l129 -129q127 90 276 90q147 0 275 -90l131 129l98 -99l-129 -129q88 -125 88 -274q0 -147 -90 -275l129 -131l-98 -98l-129 129q-125 -88 -275 -88q-147 0 -274 90l-129 -131l-98 98l129 129q-90 127 -91 277q0 147 91 274zM193 506q0 -141 94 -242 q94 -100 237 -100q142 0 236 100q96 102 96 242q0 139 -96 242q-94 100 -236 100q-143 0 -237 -100t-94 -242z" />
<glyph unicode="&#xa5;" d="M12 1350h164l234 -432q41 -76 70.5 -132.5t47.5 -93.5h4q16 39 45 94.5t70 131.5l236 432h157l-362 -670h258v-133h-334v-164h334v-133h-334v-250h-149v250h-340v133h340v164h-340v133h266z" />
<glyph unicode="&#xa6;" horiz-adv-x="487" d="M174 233h139v-718h-139v718zM174 879v718h139v-718h-139z" />
<glyph unicode="&#xa7;" horiz-adv-x="1032" d="M104 -240l70 123q125 -88 275 -88q49 0 94 12.5t78.5 36t54 58.5t20.5 82q0 78 -60.5 137t-146.5 104q-61 31 -127.5 68t-122 86t-91 113.5t-35.5 150.5q0 94 49 166t143 119q-98 98 -98 241q0 133 102 224q100 88 273 88q160 0 280 -62v-157q-127 84 -278 84 q-100 0 -165 -42t-65 -128q0 -72 61.5 -133.5t149.5 -108.5q63 -35 132 -74t125.5 -89t93 -113.5t36.5 -145.5q0 -176 -194 -291q100 -100 100 -231q0 -147 -115 -238q-115 -90 -292 -90q-199 0 -347 98zM260 662q0 -63 44 -119t97 -88q27 -16 62 -37t80 -47 q45 -27 79.5 -47.5t57.5 -36.5q111 88 111 211q0 68 -43 123t-95 86q-27 16 -61.5 34.5t-77.5 40.5q-43 23 -75.5 42.5t-55.5 35.5q-123 -78 -123 -198z" />
<glyph unicode="&#xa8;" horiz-adv-x="790" d="M125 1249.5q0 40.5 29 69.5q29 31 68.5 30t68.5 -30q29 -31 28.5 -70t-28.5 -69q-29 -29 -69 -30t-68 30q-29 29 -29 69.5zM473 1249.5q0 40.5 29 69.5q29 31 68.5 30t68.5 -30q29 -31 29 -70t-29 -69q-29 -29 -69 -30t-68 30q-29 29 -29 69.5z" />
<glyph unicode="&#xa9;" horiz-adv-x="1624" d="M133 670q0 299 189 493q186 197 489 197q291 0 485 -197q195 -201 195 -493q0 -297 -197 -494q-194 -196 -487 -196q-299 0 -488 194q-186 193 -186 496zM256 670q0 -254 160 -422t395 -168q238 0 397 168q160 168 160 422q0 252 -160 422q-159 168 -397 168 q-236 0 -395 -168q-160 -170 -160 -422zM438 662q0 180 113 299q115 121 293 120q129 0 207 -47v-127q-100 63 -211 64q-61 0 -112.5 -22.5t-88.5 -62.5t-57.5 -95.5t-20.5 -122.5q0 -135 74 -220.5t203 -85.5q92 0 188 56l39 -99q-115 -66 -244 -65q-168 0 -276 115 q-106 113 -107 293z" />
<glyph unicode="&#xaa;" horiz-adv-x="827" d="M156 899q0 94 63.5 148.5t175.5 58.5l140 4v25q0 115 -132 114q-86 0 -161 -57l-47 90q109 78 235 78q98 0 165 -49t67 -162v-191q0 -207 14 -237h-98l-21 61q-78 -74 -203 -73q-86 0 -142 52t-56 138zM287 907q0 -96 96 -96q92 0 152 61v134l-121 -2q-127 -4 -127 -97z " />
<glyph unicode="&#xab;" horiz-adv-x="1105" d="M104 494l336 475l119 -76l-287 -399l287 -398l-119 -76zM500 494l336 475l118 -76l-286 -399l286 -398l-118 -76z" />
<glyph unicode="&#xac;" horiz-adv-x="1282" d="M156 631v139h970v-590h-149v451h-821z" />
<glyph unicode="&#xad;" horiz-adv-x="743" d="M104 438v135h539v-135h-539z" />
<glyph unicode="&#xae;" horiz-adv-x="1216" d="M133 879q0 207 131 344t342 137q205 0 340 -137q137 -137 137 -344q0 -205 -139 -344q-137 -137 -340 -138q-209 0 -340 135q-131 137 -131 347zM233 879q0 -168 105 -281q106 -113 266 -113t264 113q106 113 107 281q0 168 -107 280q-104 113 -264 113t-266 -113 q-104 -115 -105 -280zM440 614v541h146q86 0 134 -41t48 -106q0 -102 -115 -144h2q27 -14 166 -250h-108q-18 31 -43 74t-41 64q-23 37 -40.5 61.5t-27.5 24.5h-29v-224h-92zM532 915h37q45 0 74 21.5t29 60.5q0 78 -97 78h-43v-160z" />
<glyph unicode="&#xaf;" horiz-adv-x="798" d="M143 1171v105h516v-105h-516z" />
<glyph unicode="&#xb0;" horiz-adv-x="811" d="M92 1036q0 133 90 224q90 90 224 90q133 0 223 -90t90 -224q0 -133 -90 -223t-223 -90t-224 90q-90 90 -90 223zM225 1036q0 -82 51 -137q25 -27 60 -40t69.5 -13t69.5 13t60 40q51 55 51 137t-51 135q-27 27 -61 41.5t-68.5 14.5t-68.5 -14.5t-61 -41.5 q-51 -53 -51 -135z" />
<glyph unicode="&#xb1;" horiz-adv-x="1277" d="M156 0v139h970v-139h-970zM156 563v139h413v308h150v-308h407v-139h-407v-307h-150v307h-413z" />
<glyph unicode="&#xb2;" horiz-adv-x="708" d="M63 545q8 111 41 186.5t76 127.5t92.5 87t90 64.5t67.5 60.5t27 76q0 43 -28 71.5t-81 28.5q-80 0 -205 -73l-49 108q143 82 281 82q111 0 171 -59.5t60 -151.5q0 -74 -30.5 -126t-81.5 -87q-33 -23 -73 -47.5t-77 -56t-66.5 -72.5t-41.5 -96l362 8v-131h-535z" />
<glyph unicode="&#xb3;" horiz-adv-x="708" d="M76 580l43 112q96 -39 192 -39q76 0 122 31t46 86q0 123 -207 123h-98v125l105 2q88 2 133 41t45 90q0 45 -30 70.5t-83 25.5q-78 0 -203 -53l-41 109q131 61 267 61q117 0 176 -55.5t59 -143.5q0 -70 -40 -122t-99 -72v-2q68 -10 116 -59.5t48 -125.5q0 -113 -80 -181 t-234 -68q-150 0 -237 45z" />
<glyph unicode="&#xb4;" horiz-adv-x="1095" d="M373 1087l182 302h207l-252 -302h-137z" />
<glyph unicode="&#xb6;" horiz-adv-x="1200" d="M104 967q0 162 105 272q104 111 260 111h29h530v-1678h-149v1551h-232v-1551h-149v914h-29q-156 0 -260 110q-104 113 -105 271z" />
<glyph unicode="&#xb7;" horiz-adv-x="405" d="M97 522q1 47 32 80q33 35 79 35t79 -35q31 -35 31.5 -81t-31.5 -81q-31 -33 -79 -33.5t-79 33.5q-33 35 -32 82z" />
<glyph unicode="&#xb8;" horiz-adv-x="1064" d="M350 -342l31 82q43 -25 92 -25q33 0 57.5 17.5t24.5 44.5q0 51 -86 55l-66 2l54 166h110l-30 -96q137 -12 137 -123q0 -35 -17.5 -62.5t-45 -47t-63.5 -30t-73 -10.5q-80 0 -125 27z" />
<glyph unicode="&#xb9;" horiz-adv-x="708" d="M117 1239l239 121h119v-815h-137v665l-180 -84z" />
<glyph unicode="&#xba;" horiz-adv-x="907" d="M156 1032q0 147 90 244q84 84 213 84q133 0 215 -88t82 -240q0 -158 -99 -252q-78 -74 -211 -73q-123 0 -200 77q-90 86 -90 248zM295 1034q0 -102 45 -160q45 -57 119 -57q73 0 116 55q43 57 43 160q0 100 -43 160q-43 57 -116 57q-74 0 -119 -57q-45 -51 -45 -158z" />
<glyph unicode="&#xbb;" horiz-adv-x="1105" d="M156 96l286 398l-286 399l118 76l336 -475l-336 -474zM551 96l287 398l-287 399l119 76l336 -475l-336 -474z" />
<glyph unicode="&#xbc;" horiz-adv-x="1617" d="M72 1239l239 121h119v-815h-137v665l-180 -84zM250 -41l913 1425h162l-913 -1425h-162zM856 184v101l393 530h140v-508h108v-123h-108v-184h-138v184h-395zM1020 299q49 4 89 6t71 2h69v94v144.5t2 68.5z" />
<glyph unicode="&#xbd;" horiz-adv-x="1617" d="M72 1239l239 121h119v-815h-137v665l-180 -84zM250 -41l913 1425h162l-913 -1425h-162zM1008 0q8 111 40.5 186.5t75.5 128t92.5 87t90.5 64.5t67.5 60.5t26.5 75.5q0 43 -27.5 71.5t-81.5 28.5q-80 0 -205 -73l-49 108q143 82 281 82q111 0 171 -59.5t60 -151.5 q0 -74 -30.5 -126t-81.5 -87q-33 -23 -73 -47t-77 -56t-66.5 -73t-41.5 -96l362 8v-131h-534z" />
<glyph unicode="&#xbe;" horiz-adv-x="1617" d="M55 580l43 112q96 -39 193 -39q76 0 122 31t46 86q0 123 -207 123h-98v125l104 2q88 2 133 41t45 90q0 45 -29.5 70.5t-82.5 25.5q-78 0 -203 -53l-41 109q131 61 266 61q117 0 176.5 -55.5t59.5 -143.5q0 -70 -40 -122t-100 -72v-2q68 -10 116 -59.5t48 -125.5 q0 -113 -80 -181t-233 -68q-150 0 -238 45zM297 -41l913 1425h162l-913 -1425h-162zM903 184v101l393 530h140v-508h108v-123h-108v-184h-138v184h-395zM1067 299q49 4 89 6t71 2h69v94v144.5t2 68.5z" />
<glyph unicode="&#xbf;" horiz-adv-x="933" d="M125 -125q0 102 65 193q33 47 69 81.5t75 63.5q80 55 143 113q66 59 66 104q0 43 -19.5 69.5t-42.5 55.5l105 86q102 -96 102 -209q0 -76 -65 -149q-66 -72 -142 -123q-80 -53 -141 -125q-63 -70 -64 -156q0 -78 49.5 -122t129.5 -44q141 0 274 127l74 -96 q-147 -158 -367 -158q-143 0 -227 77t-84 212zM380 879q1 47 32 79q33 35 78.5 35t78.5 -35q31 -35 32 -81t-32 -80q-31 -33 -79 -34t-78 34q-33 35 -32 82z" />
<glyph unicode="&#xc0;" horiz-adv-x="1187" d="M39 0l516 1354h84l518 -1354h-158l-139 360h-543l-129 -360h-149zM322 1726h206l183 -301h-138zM373 494h434l-160 456q-37 106 -51 168h-2q-8 -31 -20.5 -71.5t-32.5 -94.5z" />
<glyph unicode="&#xc1;" horiz-adv-x="1187" d="M39 0l516 1354h84l518 -1354h-158l-139 360h-543l-129 -360h-149zM373 494h434l-160 456q-37 106 -51 168h-2q-8 -31 -20.5 -71.5t-32.5 -94.5zM506 1425l182 301h207l-252 -301h-137z" />
<glyph unicode="&#xc2;" horiz-adv-x="1187" d="M39 0l516 1354h84l518 -1354h-158l-139 360h-543l-129 -360h-149zM317 1425l213 301h142l217 -301h-152l-137 201l-133 -201h-150zM373 494h434l-160 456q-37 106 -51 168h-2q-8 -31 -20.5 -71.5t-32.5 -94.5z" />
<glyph unicode="&#xc3;" horiz-adv-x="1187" d="M39 0l516 1354h84l518 -1354h-158l-139 360h-543l-129 -360h-149zM322 1493v49q0 61 40.5 101t100.5 40q47 0 110 -28l68 -31q51 -25 80 -25q45 0 45 52v20h104v-49q0 -61 -39.5 -101t-99.5 -40q-49 0 -113 28l-67 31q-53 25 -80 25q-45 0 -45 -52v-20h-104zM373 494h434 l-160 456q-37 106 -51 168h-2q-8 -31 -20.5 -71.5t-32.5 -94.5z" />
<glyph unicode="&#xc4;" horiz-adv-x="1187" d="M39 0l516 1354h84l518 -1354h-158l-139 360h-543l-129 -360h-149zM333.5 1548.5q0.5 40.5 28.5 69.5q29 31 69 30t69 -30q29 -31 28.5 -70t-28.5 -69q-29 -29 -69 -30t-69 30q-29 29 -28.5 69.5zM373 494h434l-160 456q-37 106 -51 168h-2q-8 -31 -20.5 -71.5 t-32.5 -94.5zM682 1548.5q0 40.5 29 69.5q29 31 68.5 30t68.5 -30q29 -31 29 -70t-29 -69q-29 -29 -69 -30t-68 30q-29 29 -29 69.5z" />
<glyph unicode="&#xc5;" horiz-adv-x="1187" d="M39 0l510 1339q-68 16 -108 66.5t-40 124.5q0 86 55.5 139t143.5 53q86 0 141.5 -53t55.5 -139q0 -74 -42 -125t-112 -66l514 -1339h-158l-139 360h-543l-129 -360h-149zM373 494h434l-160 456q-37 106 -51 168h-2q-8 -31 -20.5 -71.5t-32.5 -94.5zM496 1532 q0 -55 27.5 -85t74.5 -30q102 0 102 115q0 53 -27.5 84t-74.5 31t-74.5 -31t-27.5 -84z" />
<glyph unicode="&#xc6;" horiz-adv-x="1622" d="M39 0l700 1350h766l-57 -140h-559l76 -450h479v-137h-453l84 -484h436v-139h-563l-63 360h-502l-188 -360h-156zM453 494h401l-66 436q0 6 -24 190h-2q-16 -41 -92 -190z" />
<glyph unicode="&#xc7;" horiz-adv-x="1189" d="M94 659q0 297 189 498q186 203 483 203q217 0 344 -80v-160q-164 104 -350 105q-223 0 -365 -160q-141 -158 -141 -395q0 -246 135 -400t369 -153q160 0 317 86l45 -123q-176 -96 -362 -100l-25 -76q137 -12 137 -123q0 -35 -17 -62.5t-45 -47t-63.5 -30t-72.5 -10.5 q-80 0 -125 27l31 82q43 -25 92 -25q33 0 57.5 17.5t24.5 44.5q0 51 -86 55l-66 2l49 152q-256 29 -405 213q-150 180 -150 460z" />
<glyph unicode="&#xc8;" horiz-adv-x="954" d="M176 0v1350h662l-58 -140h-454v-450h450v-137h-450v-484h518v-139h-668zM262 1726h207l182 -301h-137z" />
<glyph unicode="&#xc9;" horiz-adv-x="954" d="M176 0v1350h662l-58 -140h-454v-450h450v-137h-450v-484h518v-139h-668zM373 1425l182 301h207l-252 -301h-137z" />
<glyph unicode="&#xca;" horiz-adv-x="954" d="M176 0v1350h662l-58 -140h-454v-450h450v-137h-450v-484h518v-139h-668zM215 1425l213 301h141l217 -301h-151l-137 201l-133 -201h-150z" />
<glyph unicode="&#xcb;" horiz-adv-x="954" d="M176 0v1350h662l-58 -140h-454v-450h450v-137h-450v-484h518v-139h-668zM231 1548.5q0 40.5 29 69.5q29 31 68.5 30t68.5 -30q29 -31 29 -70t-29 -69q-29 -29 -68.5 -30t-68.5 30q-29 29 -29 69.5zM579.5 1548.5q0.5 40.5 28.5 69.5q29 31 68.5 30t68.5 -30 q29 -31 29 -70t-29 -69q-29 -29 -68.5 -30t-68.5 30q-29 29 -28.5 69.5z" />
<glyph unicode="&#xcc;" horiz-adv-x="497" d="M-8 1726h207l182 -301h-137zM176 0v1350h150v-1350h-150z" />
<glyph unicode="&#xcd;" horiz-adv-x="497" d="M119 1425l182 301h207l-252 -301h-137zM176 0v1350h150v-1350h-150z" />
<glyph unicode="&#xce;" horiz-adv-x="497" d="M-33 1425l213 301h142l217 -301h-152l-137 201l-133 -201h-150zM176 0v1350h150v-1350h-150z" />
<glyph unicode="&#xcf;" horiz-adv-x="497" d="M-18.5 1548.5q0.5 40.5 28.5 69.5q29 31 68.5 30t68.5 -30q29 -31 29 -70t-29 -69q-29 -29 -68.5 -30t-68.5 30q-29 29 -28.5 69.5zM176 0v1350h150v-1350h-150zM329.5 1548.5q0.5 40.5 28.5 69.5q29 31 69 30t69 -30q29 -31 28.5 -70t-28.5 -69q-29 -29 -69 -30t-69 30 q-29 29 -28.5 69.5z" />
<glyph unicode="&#xd0;" horiz-adv-x="1366" d="M84 608v137h164v605h293q369 0 551 -183q184 -182 184 -479q0 -303 -184 -495q-180 -193 -543 -193h-301v608h-164zM397 139h166q291 0 424 154q135 153 135 397q0 225 -141 373q-141 147 -414 147h-170v-465h348v-137h-348v-469z" />
<glyph unicode="&#xd1;" horiz-adv-x="1462" d="M176 0v1350h156l655 -877q125 -170 154 -227h4q-2 45 -3 86t-1 78v940h149v-1350h-139l-684 909q-57 76 -92 129.5t-49 81.5h-4q2 -45 3 -86t1 -78v-956h-150zM451 1491v49q0 61 40.5 101t100.5 40q47 0 110 -28l68 -31q51 -25 80 -25q45 0 45 52v20h104v-49 q0 -61 -39.5 -101t-99.5 -40q-49 0 -112 28l-68 31q-53 25 -80 25q-45 0 -45 -52v-20h-104z" />
<glyph unicode="&#xd2;" horiz-adv-x="1519" d="M94 668q0 303 191 499q186 193 477 193q309 0 498 -213q170 -194 170 -479q0 -315 -203 -512q-182 -176 -465 -176q-276 0 -457 167q-211 193 -211 521zM256 668q0 -254 135 -402q135 -147 371 -147q233 0 368 147q138 150 138 402q0 244 -133 395q-133 154 -373 154 q-233 0 -371 -150q-135 -147 -135 -399zM469 1726h207l182 -301h-137z" />
<glyph unicode="&#xd3;" horiz-adv-x="1519" d="M94 668q0 303 191 499q186 193 477 193q309 0 498 -213q170 -194 170 -479q0 -315 -203 -512q-182 -176 -465 -176q-276 0 -457 167q-211 193 -211 521zM256 668q0 -254 135 -402q135 -147 371 -147q233 0 368 147q138 150 138 402q0 244 -133 395q-133 154 -373 154 q-233 0 -371 -150q-135 -147 -135 -399zM676 1425l182 301h207l-252 -301h-137z" />
<glyph unicode="&#xd4;" horiz-adv-x="1519" d="M94 668q0 303 191 499q186 193 477 193q309 0 498 -213q170 -194 170 -479q0 -315 -203 -512q-182 -176 -465 -176q-276 0 -457 167q-211 193 -211 521zM256 668q0 -254 135 -402q135 -147 371 -147q233 0 368 147q138 150 138 402q0 244 -133 395q-133 154 -373 154 q-233 0 -371 -150q-135 -147 -135 -399zM465 1425l213 301h141l217 -301h-151l-137 201l-134 -201h-149z" />
<glyph unicode="&#xd5;" horiz-adv-x="1519" d="M94 668q0 303 191 499q186 193 477 193q309 0 498 -213q170 -194 170 -479q0 -315 -203 -512q-182 -176 -465 -176q-276 0 -457 167q-211 193 -211 521zM256 668q0 -254 135 -402q135 -147 371 -147q233 0 368 147q138 150 138 402q0 244 -133 395q-133 154 -373 154 q-233 0 -371 -150q-135 -147 -135 -399zM485 1491v49q0 61 41 101t101 40q47 0 110 -28l68 -31q51 -25 80 -25q45 0 45 52v20h104v-49q0 -61 -40 -101t-99 -40q-49 0 -113 28l-67 31q-53 25 -80 25q-45 0 -45 -52v-20h-105z" />
<glyph unicode="&#xd6;" horiz-adv-x="1519" d="M94 668q0 303 191 499q186 193 477 193q309 0 498 -213q170 -194 170 -479q0 -315 -203 -512q-182 -176 -465 -176q-276 0 -457 167q-211 193 -211 521zM256 668q0 -254 135 -402q135 -147 371 -147q233 0 368 147q138 150 138 402q0 244 -133 395q-133 154 -373 154 q-233 0 -371 -150q-135 -147 -135 -399zM487 1548.5q0 40.5 29 69.5q29 31 68.5 30t68.5 -30q29 -31 29 -70t-29 -69q-29 -29 -68.5 -30t-68.5 30q-29 29 -29 69.5zM835.5 1548.5q0.5 40.5 28.5 69.5q29 31 68.5 30t68.5 -30q29 -31 29 -70t-29 -69q-29 -29 -68.5 -30 t-68.5 30q-29 29 -28.5 69.5z" />
<glyph unicode="&#xd7;" horiz-adv-x="1282" d="M119 928l98 98l424 -422l424 422l98 -98l-424 -422l422 -424l-98 -98l-422 424l-422 -424l-98 98l422 424z" />
<glyph unicode="&#xd8;" horiz-adv-x="1519" d="M94 668q0 303 191 499q186 193 477 193q205 0 354 -94l109 143l110 -78l-110 -147q98 -92 151.5 -229t53.5 -287q0 -315 -203 -512q-186 -180 -465 -181q-211 0 -373 107l-102 -137l-109 80l109 141q-193 193 -193 502zM252 668q0 -238 123 -385l655 870q-115 68 -268 68 q-233 0 -373 -152q-137 -150 -137 -401zM475 195q119 -80 287 -80q233 0 371 149q139 152 139 404t-135 399z" />
<glyph unicode="&#xd9;" horiz-adv-x="1353" d="M176 485v865h150v-867q0 -180 96 -280q88 -88 246 -88q92 0 158.5 21.5t109.5 68.5q84 88 84 266v879h149v-899q0 -213 -122 -338q-133 -133 -383 -133q-231 0 -357 118q-131 129 -131 387zM395 1726h207l182 -301h-137z" />
<glyph unicode="&#xda;" horiz-adv-x="1353" d="M176 485v865h150v-867q0 -180 96 -280q88 -88 246 -88q92 0 158.5 21.5t109.5 68.5q84 88 84 266v879h149v-899q0 -213 -122 -338q-133 -133 -383 -133q-231 0 -357 118q-131 129 -131 387zM580 1425l182 301h207l-252 -301h-137z" />
<glyph unicode="&#xdb;" horiz-adv-x="1353" d="M176 485v865h150v-867q0 -180 96 -280q88 -88 246 -88q92 0 158.5 21.5t109.5 68.5q84 88 84 266v879h149v-899q0 -213 -122 -338q-133 -133 -383 -133q-231 0 -357 118q-131 129 -131 387zM391 1425l213 301h141l218 -301h-152l-137 201l-133 -201h-150z" />
<glyph unicode="&#xdc;" horiz-adv-x="1353" d="M176 485v865h150v-867q0 -180 96 -280q88 -88 246 -88q92 0 158.5 21.5t109.5 68.5q84 88 84 266v879h149v-899q0 -213 -122 -338q-133 -133 -383 -133q-231 0 -357 118q-131 129 -131 387zM401 1548.5q0 40.5 29 69.5q29 31 68.5 30t68.5 -30q29 -31 29 -70t-29 -69 q-29 -29 -68.5 -30t-68.5 30q-29 29 -29 69.5zM749.5 1548.5q0.5 40.5 28.5 69.5q29 31 68.5 30t68.5 -30q29 -31 29 -70t-29 -69q-29 -29 -68.5 -30t-68.5 30q-29 29 -28.5 69.5z" />
<glyph unicode="&#xdd;" horiz-adv-x="1093" d="M33 1350h164l239 -432q41 -74 72 -130.5t49 -95.5h4q33 76 113 226l233 432h158l-434 -809v-541h-150v545zM459 1450l182 301h207l-252 -301h-137z" />
<glyph unicode="&#xde;" horiz-adv-x="997" d="M176 0v1350h150v-230h112q104 0 189.5 -28.5t146 -83t92 -132.5t31.5 -176q0 -186 -117 -311q-113 -125 -346 -125h-108v-264h-150zM326 399h127q147 0 219.5 81t72.5 222q0 129 -77.5 204t-227.5 75h-114v-582z" />
<glyph unicode="&#xdf;" horiz-adv-x="1146" d="M135 -289v1301q0 131 40 215t102.5 133t136 68.5t141.5 21.5q70 2 140.5 -21.5t126 -74.5t90 -130t34.5 -190v-34.5t-2 -24.5q-111 -23 -163 -58.5t-52 -95.5q0 -37 25.5 -70.5t64.5 -67.5t84 -72t84 -82t64.5 -98t25.5 -122q0 -166 -102.5 -247.5t-263.5 -81.5 q-162 0 -287 73l57 117q106 -70 236 -70q92 0 148.5 47.5t56.5 145.5q0 57 -26 99t-63.5 78t-82.5 68.5t-83 71.5t-63.5 86t-25.5 111q0 190 221 258q-4 117 -69.5 188.5t-176.5 71.5q-119 0 -193.5 -75.5t-74.5 -237.5v-1301h-150z" />
<glyph unicode="&#xe0;" horiz-adv-x="942" d="M84 276q0 147 98.5 228.5t290.5 87.5l197 6v45q0 221 -209 221q-133 0 -254 -90l-62 109q154 111 342 110q332 0 332 -327v-295q0 -324 21 -371h-123l-39 94q-121 -115 -297 -114q-123 0 -211 81q-86 82 -86 215zM213 1389h207l182 -302h-137zM233 287q0 -78 48.5 -128 t140.5 -50q139 0 248 110v246l-193 -6q-244 -10 -244 -172z" />
<glyph unicode="&#xe1;" horiz-adv-x="942" d="M84 276q0 147 98.5 228.5t290.5 87.5l197 6v45q0 221 -209 221q-133 0 -254 -90l-62 109q154 111 342 110q332 0 332 -327v-295q0 -324 21 -371h-123l-39 94q-121 -115 -297 -114q-123 0 -211 81q-86 82 -86 215zM233 287q0 -78 48.5 -128t140.5 -50q139 0 248 110v246 l-193 -6q-244 -10 -244 -172zM373 1087l182 302h207l-252 -302h-137z" />
<glyph unicode="&#xe2;" horiz-adv-x="942" d="M84 276q0 147 98.5 228.5t290.5 87.5l197 6v45q0 221 -209 221q-133 0 -254 -90l-62 109q154 111 342 110q332 0 332 -327v-295q0 -324 21 -371h-123l-39 94q-121 -115 -297 -114q-123 0 -211 81q-86 82 -86 215zM205 1087l213 302h141l217 -302h-151l-138 201l-133 -201 h-149zM233 287q0 -78 48.5 -128t140.5 -50q139 0 248 110v246l-193 -6q-244 -10 -244 -172z" />
<glyph unicode="&#xe3;" horiz-adv-x="942" d="M84 276q0 147 98.5 228.5t290.5 87.5l197 6v45q0 221 -209 221q-133 0 -254 -90l-62 109q154 111 342 110q332 0 332 -327v-295q0 -324 21 -371h-123l-39 94q-121 -115 -297 -114q-123 0 -211 81q-86 82 -86 215zM227 1137v49q0 61 41 101t101 40q47 0 110 -29l68 -30 q51 -25 80 -25q45 0 45 51v21h104v-49q0 -61 -40 -101.5t-99 -40.5q-49 0 -113 29l-67 31q-53 25 -80 24q-45 0 -45 -51v-20h-105zM233 287q0 -78 48.5 -128t140.5 -50q139 0 248 110v246l-193 -6q-244 -10 -244 -172z" />
<glyph unicode="&#xe4;" horiz-adv-x="942" d="M84 276q0 147 98.5 228.5t290.5 87.5l197 6v45q0 221 -209 221q-133 0 -254 -90l-62 109q154 111 342 110q332 0 332 -327v-295q0 -324 21 -371h-123l-39 94q-121 -115 -297 -114q-123 0 -211 81q-86 82 -86 215zM211 1249.5q0 40.5 29 69.5q29 31 68.5 30t68.5 -30 q29 -31 29 -70t-29 -69q-29 -29 -69 -30t-68 30q-29 29 -29 69.5zM233 287q0 -78 48.5 -128t140.5 -50q139 0 248 110v246l-193 -6q-244 -10 -244 -172zM559 1249.5q0 40.5 29 69.5q29 31 68.5 30t68.5 -30q29 -31 29 -70t-29 -69q-29 -29 -69 -30t-68 30q-29 29 -29 69.5z " />
<glyph unicode="&#xe5;" horiz-adv-x="942" d="M84 276q0 147 98.5 228.5t290.5 87.5l197 6v45q0 221 -209 221q-133 0 -254 -90l-62 109q154 111 342 110q332 0 332 -327v-295q0 -324 21 -371h-123l-39 94q-121 -115 -297 -114q-123 0 -211 81q-86 82 -86 215zM233 287q0 -78 48.5 -128t140.5 -50q139 0 248 110v246 l-193 -6q-244 -10 -244 -172zM293 1266q0 86 55 139t144 53q86 0 141 -53t55 -139t-56.5 -140.5t-142.5 -54.5q-88 0 -142 53.5t-54 141.5zM387 1268q0 -55 27.5 -85t74.5 -30q103 0 103 115q0 53 -27.5 83.5t-75.5 30.5q-47 0 -74.5 -30.5t-27.5 -83.5z" />
<glyph unicode="&#xe6;" horiz-adv-x="1521" d="M84 276q0 147 104.5 229.5t309.5 82.5h176v55q0 221 -213 221q-133 0 -254 -90l-60 105q152 115 340 114q213 0 289 -143q113 143 279 143q186 0 286.5 -135t100.5 -364v-33h-621q0 -74 21.5 -138.5t62.5 -111.5t100.5 -73.5t137.5 -26.5q123 0 229 69l45 -102 q-53 -43 -136 -70.5t-169 -27.5q-221 0 -344 172l-96 -84q-37 -33 -112 -60.5t-161 -27.5q-68 0 -125 21.5t-100 59t-66.5 93t-23.5 122.5zM233 287q0 -78 49.5 -128t147.5 -50q156 0 285 139q-43 88 -49 213h-144q-289 0 -289 -174zM821 588h457q0 111 -59 194 q-59 86 -164 86q-53 0 -96.5 -21.5t-74 -59t-47 -89t-16.5 -110.5z" />
<glyph unicode="&#xe7;" horiz-adv-x="862" d="M84 473q0 219 125 369q127 152 354 151q137 0 246 -61v-141q-115 72 -252 71q-74 0 -134.5 -27.5t-101 -78.5t-63 -121t-22.5 -152q0 -164 86 -270q86 -104 231 -104q127 0 242 71l47 -106q-123 -76 -262 -92l-25 -78q137 -12 137 -123q0 -35 -17.5 -62.5t-45 -47 t-63.5 -30t-72 -10.5q-80 0 -125 27l30 82q43 -25 93 -25q33 0 57 17.5t24 44.5q0 51 -86 55l-65 2l47 150q-182 20 -285 159q-100 137 -100 330z" />
<glyph unicode="&#xe8;" horiz-adv-x="944" d="M84 504q0 211 109 350q111 139 284 139q186 0 286.5 -135t100.5 -364v-35h-620q0 -74 21.5 -137.5t62.5 -110.5t100 -73.5t137 -26.5q123 0 230 69l45 -102q-53 -43 -136 -70.5t-169 -27.5q-217 0 -334 151q-117 150 -117 373zM246 586h456q0 111 -59 194q-59 86 -164 86 q-53 0 -96 -21.5t-73.5 -59t-47 -89t-16.5 -110.5zM252 1389h207l182 -302h-137z" />
<glyph unicode="&#xe9;" horiz-adv-x="944" d="M84 504q0 211 109 350q111 139 284 139q186 0 286.5 -135t100.5 -364v-35h-620q0 -74 21.5 -137.5t62.5 -110.5t100 -73.5t137 -26.5q123 0 230 69l45 -102q-53 -43 -136 -70.5t-169 -27.5q-217 0 -334 151q-117 150 -117 373zM246 586h456q0 111 -59 194q-59 86 -164 86 q-53 0 -96 -21.5t-73.5 -59t-47 -89t-16.5 -110.5zM410 1087l182 302h207l-252 -302h-137z" />
<glyph unicode="&#xea;" horiz-adv-x="944" d="M84 504q0 211 109 350q111 139 284 139q186 0 286.5 -135t100.5 -364v-35h-620q0 -74 21.5 -137.5t62.5 -110.5t100 -73.5t137 -26.5q123 0 230 69l45 -102q-53 -43 -136 -70.5t-169 -27.5q-217 0 -334 151q-117 150 -117 373zM207 1087l213 302h141l217 -302h-151 l-138 201l-133 -201h-149zM246 586h456q0 111 -59 194q-59 86 -164 86q-53 0 -96 -21.5t-73.5 -59t-47 -89t-16.5 -110.5z" />
<glyph unicode="&#xeb;" horiz-adv-x="944" d="M84 504q0 211 109 350q111 139 284 139q186 0 286.5 -135t100.5 -364v-35h-620q0 -74 21.5 -137.5t62.5 -110.5t100 -73.5t137 -26.5q123 0 230 69l45 -102q-53 -43 -136 -70.5t-169 -27.5q-217 0 -334 151q-117 150 -117 373zM215 1249.5q0 40.5 29 69.5q29 31 68.5 30 t68.5 -30q29 -31 29 -70t-29 -69q-29 -29 -69 -30t-68 30q-29 29 -29 69.5zM246 586h456q0 111 -59 194q-59 86 -164 86q-53 0 -96 -21.5t-73.5 -59t-47 -89t-16.5 -110.5zM563 1249.5q0 40.5 29 69.5q29 31 68.5 30t68.5 -30q29 -31 29 -70t-29 -69q-29 -29 -68.5 -30 t-68.5 30q-29 29 -29 69.5z" />
<glyph unicode="&#xec;" horiz-adv-x="471" d="M-25 1389h207l183 -302h-138zM162 0v969h149v-969h-149z" />
<glyph unicode="&#xed;" horiz-adv-x="471" d="M127 1087l182 302h207l-252 -302h-137zM162 0v969h149v-969h-149z" />
<glyph unicode="&#xee;" horiz-adv-x="471" d="M-41 1087l213 302h141l217 -302h-151l-137 201l-133 -201h-150zM162 0v969h149v-969h-149z" />
<glyph unicode="&#xef;" horiz-adv-x="471" d="M-29 1249.5q0 40.5 29 69.5q29 31 68.5 30t68.5 -30q29 -31 29 -70t-29 -69q-29 -29 -68.5 -30t-68.5 30q-29 29 -29 69.5zM162 0v969h149v-969h-149zM319 1249.5q0 40.5 29 69.5q29 31 68.5 30t68.5 -30q29 -31 29 -70t-29 -69q-29 -29 -68.5 -30t-68.5 30 q-29 29 -29 69.5z" />
<glyph unicode="&#xf0;" horiz-adv-x="1130" d="M104 492q0 223 121 362q123 139 316 139q94 0 174 -35q37 -16 61.5 -32.5t42 -37t31.5 -43t31 -50.5h2q-20 270 -187 426l-268 -117l-47 113l205 88q-109 63 -285 81l39 125q238 -35 397 -141l246 105l47 -113l-190 -82q190 -209 190 -676q0 -309 -127 -466.5 t-344 -157.5q-195 0 -317 126q-137 137 -138 386zM258 496q0 -180 82 -282.5t225 -102.5q147 0 225 104.5t78 284.5q0 154 -86 262q-82 106 -221 106q-143 0 -223 -99t-80 -273z" />
<glyph unicode="&#xf1;" horiz-adv-x="1034" d="M135 0v969h123l21 -115q96 72 173.5 105.5t172.5 33.5q117 0 197.5 -86t80.5 -256v-651h-149v596q0 256 -168 256q-131 0 -301 -152v-700h-150zM264 1137v49q0 61 41 101t101 40q47 0 110 -29l68 -30q51 -25 80 -25q45 0 45 51v21h104v-49q0 -61 -40 -101.5t-99 -40.5 q-49 0 -113 29l-67 31q-53 25 -80 24q-45 0 -45 -51v-20h-105z" />
<glyph unicode="&#xf2;" horiz-adv-x="1044" d="M84 485q0 242 135 383q119 125 303 125q188 0 307 -125q136 -141 136 -383q0 -248 -138 -385q-117 -121 -307 -120q-188 0 -301 118q-135 137 -135 387zM236 489q0 -174 76.5 -277t211.5 -103t212 103t77 277t-77 275.5t-214 101.5q-135 0 -210.5 -101t-75.5 -276z M264 1389h207l182 -302h-137z" />
<glyph unicode="&#xf3;" horiz-adv-x="1044" d="M84 485q0 242 135 383q119 125 303 125q188 0 307 -125q136 -141 136 -383q0 -248 -138 -385q-117 -121 -307 -120q-188 0 -301 118q-135 137 -135 387zM236 489q0 -174 76.5 -277t211.5 -103t212 103t77 277t-77 275.5t-214 101.5q-135 0 -210.5 -101t-75.5 -276z M469 1087l182 302h207l-252 -302h-137z" />
<glyph unicode="&#xf4;" horiz-adv-x="1044" d="M84 485q0 242 135 383q119 125 303 125q188 0 307 -125q136 -141 136 -383q0 -248 -138 -385q-117 -121 -307 -120q-188 0 -301 118q-135 137 -135 387zM236 489q0 -174 76.5 -277t211.5 -103t212 103t77 277t-77 275.5t-214 101.5q-135 0 -210.5 -101t-75.5 -276z M248 1087l213 302h141l217 -302h-151l-138 201l-133 -201h-149z" />
<glyph unicode="&#xf5;" horiz-adv-x="1044" d="M84 485q0 242 135 383q119 125 303 125q188 0 307 -125q136 -141 136 -383q0 -248 -138 -385q-117 -121 -307 -120q-188 0 -301 118q-135 137 -135 387zM236 489q0 -174 76.5 -277t211.5 -103t212 103t77 277t-77 275.5t-214 101.5q-135 0 -210.5 -101t-75.5 -276z M283 1137v49q0 61 41 101t100 40q47 0 111 -29l67 -30q51 -25 80 -25q45 0 45 51v21h104v-49q0 -61 -39.5 -101.5t-99.5 -40.5q-49 0 -112 29l-68 31q-53 25 -80 24q-45 0 -45 -51v-20h-104z" />
<glyph unicode="&#xf6;" horiz-adv-x="1044" d="M84 485q0 242 135 383q119 125 303 125q188 0 307 -125q136 -141 136 -383q0 -248 -138 -385q-117 -121 -307 -120q-188 0 -301 118q-135 137 -135 387zM236 489q0 -174 76.5 -277t211.5 -103t212 103t77 277t-77 275.5t-214 101.5q-135 0 -210.5 -101t-75.5 -276z M254 1249.5q0 40.5 29 69.5q29 31 68.5 30t68.5 -30q29 -31 29 -70t-29 -69q-29 -29 -69 -30t-68 30q-29 29 -29 69.5zM602 1249.5q0 40.5 29 69.5q29 31 68.5 30t68.5 -30q29 -31 29 -70t-29 -69q-29 -29 -69 -30t-68 30q-29 29 -29 69.5z" />
<glyph unicode="&#xf7;" horiz-adv-x="1282" d="M156 451v139h970v-139h-970zM529 162q1 47 32 80q33 35 79 35t79 -35q31 -35 32 -81t-32 -81q-31 -33 -79 -34t-79 34q-33 35 -32 82zM529 879q1 47 32 79q33 35 79 35t79 -35q31 -35 32 -81t-32 -80q-31 -33 -79 -34t-79 34q-33 35 -32 82z" />
<glyph unicode="&#xf8;" horiz-adv-x="1050" d="M84 0l104 139q-100 131 -100 346q0 242 135 383q119 125 303 125q143 0 250 -75l94 118l101 -71l-105 -138q102 -139 103 -342q0 -248 -138 -385q-117 -121 -307 -120q-143 0 -245 71l-95 -127zM240 489q0 -135 45 -225l411 547q-68 55 -170 55q-135 0 -210.5 -101 t-75.5 -276zM365 164q68 -55 163 -55q135 0 212 103t77 277q0 119 -41 218z" />
<glyph unicode="&#xf9;" horiz-adv-x="1032" d="M135 319v650h150v-635q0 -225 188 -225q82 0 150.5 39.5t107.5 89.5v731h150v-563q0 -352 20 -406h-119l-39 100q-145 -121 -313 -120q-119 0 -209 77q-86 76 -86 262zM225 1389h207l182 -302h-137z" />
<glyph unicode="&#xfa;" horiz-adv-x="1032" d="M135 319v650h150v-635q0 -225 188 -225q82 0 150.5 39.5t107.5 89.5v731h150v-563q0 -352 20 -406h-119l-39 100q-145 -121 -313 -120q-119 0 -209 77q-86 76 -86 262zM430 1087l182 302h207l-252 -302h-137z" />
<glyph unicode="&#xfb;" horiz-adv-x="1032" d="M135 319v650h150v-635q0 -225 188 -225q82 0 150.5 39.5t107.5 89.5v731h150v-563q0 -352 20 -406h-119l-39 100q-145 -121 -313 -120q-119 0 -209 77q-86 76 -86 262zM221 1087l213 302h141l218 -302h-152l-137 201l-133 -201h-150z" />
<glyph unicode="&#xfc;" horiz-adv-x="1032" d="M135 319v650h150v-635q0 -225 188 -225q82 0 150.5 39.5t107.5 89.5v731h150v-563q0 -352 20 -406h-119l-39 100q-145 -121 -313 -120q-119 0 -209 77q-86 76 -86 262zM237.5 1249.5q0.5 40.5 28.5 69.5q29 31 68.5 30t68.5 -30q29 -31 29 -70t-29 -69q-29 -29 -68.5 -30 t-68.5 30q-29 29 -28.5 69.5zM585.5 1249.5q0.5 40.5 28.5 69.5q29 31 69 30t69 -30q29 -31 28.5 -70t-28.5 -69q-29 -29 -69 -30t-69 30q-29 29 -28.5 69.5z" />
<glyph unicode="&#xfd;" horiz-adv-x="1038" d="M-4 -451l37 117q61 -31 141 -31q203 0 301 355l-436 979h160l346 -793h6l264 793h150l-369 -1061q-80 -229 -184 -311q-100 -82 -240 -82q-90 0 -176 34zM418 1087l182 302h207l-252 -302h-137z" />
<glyph unicode="&#xfe;" horiz-adv-x="1052" d="M156 -483v1933h149v-475q88 18 168 18q111 0 200 -33.5t150.5 -98t95 -155.5t33.5 -208q0 -190 -90 -315.5t-231 -174.5q-80 -29 -164 -28q-86 0 -162 30v-493h-149zM305 147q78 -39 156 -38q154 0 247 103.5t93 281.5q0 180 -93.5 272t-236.5 92q-90 0 -166 -24v-687z " />
<glyph unicode="&#xff;" horiz-adv-x="976" d="M-25 -451l37 117q61 -31 142 -31q203 0 301 355l-437 979h160l346 -793h6l265 793h149l-369 -1061q-80 -229 -184 -311q-100 -82 -239 -82q-90 0 -177 34zM227 1249.5q0 40.5 29 69.5q29 31 68.5 30t68.5 -30q29 -31 29 -70t-29 -69q-29 -29 -68.5 -30t-68.5 30 q-29 29 -29 69.5zM575 1249.5q0 40.5 29 69.5q29 31 68.5 30t68.5 -30q29 -31 29 -70t-29 -69q-29 -29 -68.5 -30t-68.5 30q-29 29 -29 69.5z" />
<glyph unicode="&#x152;" horiz-adv-x="1746" d="M94 668q0 305 187 497q188 195 481 195q10 0 43 -2t92 -4q59 -4 96 -4h54h583l-57 -140h-455v-450h451v-137h-451v-484h518v-139h-510q-14 0 -58 -3t-118 -7q-147 -12 -188 -13q-274 0 -457 170q-211 193 -211 521zM252 668q0 -254 137 -404t373 -149q37 0 207 18v1073 q-86 8 -138.5 11.5t-68.5 3.5q-233 0 -373 -152q-137 -150 -137 -401z" />
<glyph unicode="&#x153;" horiz-adv-x="1662" d="M84 485q0 242 135 383q119 125 303 125q236 0 357 -194q109 195 317 194q186 0 286.5 -135t100.5 -364v-35h-620q0 -74 21.5 -137.5t62 -110.5t100 -73.5t137.5 -26.5q123 0 229 69l46 -102q-53 -43 -136.5 -70.5t-169.5 -27.5q-246 0 -368 202q-119 -205 -365 -205 q-184 0 -301 121q-135 137 -135 387zM236 489q0 -174 76.5 -277t211.5 -103t212 103t77 277t-77 275.5t-214 101.5q-135 0 -210.5 -101t-75.5 -276zM965 586h456q0 111 -59 194q-59 86 -164 86q-53 0 -96 -21.5t-74 -59t-47 -89t-16 -110.5z" />
<glyph unicode="&#x178;" horiz-adv-x="1093" d="M33 1350h164l239 -432q41 -74 72 -130.5t49 -95.5h4q33 76 113 226l233 432h158l-434 -809v-541h-150v545zM278.5 1548.5q0.5 40.5 28.5 69.5q29 31 68.5 30t68.5 -30q29 -31 29 -70t-29 -69q-29 -29 -68.5 -30t-68.5 30q-29 29 -28.5 69.5zM626.5 1548.5 q0.5 40.5 28.5 69.5q29 31 69 30t69 -30q29 -31 28.5 -70t-28.5 -69q-29 -29 -69 -30t-69 30q-29 29 -28.5 69.5z" />
<glyph unicode="&#x2c6;" horiz-adv-x="854" d="M143 1087l213 302h142l217 -302h-152l-137 201l-133 -201h-150z" />
<glyph unicode="&#x2dc;" horiz-adv-x="819" d="M137 1137v49q0 61 41 101t101 40q47 0 110 -29l68 -30q51 -25 80 -25q45 0 45 51v21h104v-49q0 -61 -40 -101.5t-99 -40.5q-49 0 -113 29l-67 31q-53 25 -80 24q-45 0 -45 -51v-20h-105z" />
<glyph unicode="&#x2000;" horiz-adv-x="875" />
<glyph unicode="&#x2001;" horiz-adv-x="1751" />
<glyph unicode="&#x2002;" horiz-adv-x="875" />
<glyph unicode="&#x2003;" horiz-adv-x="1751" />
<glyph unicode="&#x2004;" horiz-adv-x="583" />
<glyph unicode="&#x2005;" horiz-adv-x="437" />
<glyph unicode="&#x2006;" horiz-adv-x="291" />
<glyph unicode="&#x2007;" horiz-adv-x="291" />
<glyph unicode="&#x2008;" horiz-adv-x="218" />
<glyph unicode="&#x2009;" horiz-adv-x="350" />
<glyph unicode="&#x200a;" horiz-adv-x="97" />
<glyph unicode="&#x2010;" horiz-adv-x="743" d="M104 438v135h539v-135h-539z" />
<glyph unicode="&#x2011;" horiz-adv-x="743" d="M104 438v135h539v-135h-539z" />
<glyph unicode="&#x2012;" horiz-adv-x="743" d="M104 438v135h539v-135h-539z" />
<glyph unicode="&#x2013;" horiz-adv-x="1024" d="M0 449v124h1024v-124h-1024z" />
<glyph unicode="&#x2014;" horiz-adv-x="2048" d="M0 449v124h2048v-124h-2048z" />
<glyph unicode="&#x2018;" horiz-adv-x="468" d="M193 973q-121 268 8 497l84 -26q-37 -182 53 -395z" />
<glyph unicode="&#x2019;" horiz-adv-x="487" d="M135 1034q49 98 60.5 191.5t-7.5 204.5l158 34q49 -283 -135 -479z" />
<glyph unicode="&#x201a;" horiz-adv-x="487" d="M135 -195q49 98 60.5 191.5t-7.5 204.5l158 35q49 -283 -135 -480z" />
<glyph unicode="&#x201c;" horiz-adv-x="790" d="M193 973q-121 268 8 497l84 -26q-37 -182 53 -395zM514 973q-121 268 8 497l84 -26q-37 -182 53 -395z" />
<glyph unicode="&#x201d;" horiz-adv-x="808" d="M135 1034q49 98 60.5 191.5t-7.5 204.5l158 34q49 -283 -135 -479zM457 1034q49 98 60 191.5t-7 204.5l158 34q49 -283 -136 -479z" />
<glyph unicode="&#x201e;" horiz-adv-x="808" d="M135 -195q49 98 60.5 191.5t-7.5 204.5l158 35q49 -283 -135 -480zM457 -195q49 98 60 191.5t-7 204.5l158 35q49 -283 -136 -480z" />
<glyph unicode="&#x2022;" horiz-adv-x="608" d="M113 651q0 86 54 142.5t136 56.5t137.5 -56.5t55.5 -142.5q0 -82 -55.5 -139t-137.5 -57q-41 0 -74.5 15t-60.5 42t-41 62.5t-14 76.5z" />
<glyph unicode="&#x2026;" horiz-adv-x="1437" d="M97 92q1 47 32 80q33 35 79 35t79 -35q31 -35 31.5 -81t-31.5 -81q-31 -33 -79 -34t-79 34q-33 35 -32 82zM613 92q1 47 32 80q33 35 79 35t79 -35q31 -35 32 -81t-32 -81q-31 -33 -79 -34t-79 34q-33 35 -32 82zM1129 92q1 47 32 80q33 35 79 35t79 -35q31 -35 32 -81 t-32 -81q-31 -33 -79 -34t-79 34q-33 35 -32 82z" />
<glyph unicode="&#x202f;" horiz-adv-x="350" />
<glyph unicode="&#x2039;" horiz-adv-x="710" d="M104 494l336 475l119 -76l-287 -399l287 -398l-119 -76z" />
<glyph unicode="&#x203a;" horiz-adv-x="710" d="M156 96l286 398l-286 399l118 76l336 -475l-336 -474z" />
<glyph unicode="&#x205f;" horiz-adv-x="437" />
<glyph unicode="&#x2122;" horiz-adv-x="1638" d="M53 1237v113h596l-43 -113h-209v-696h-118v696h-226zM694 541v809h123l227 -344q10 -14 22.5 -37t29.5 -54h4q27 55 49 93l215 342h123v-809h-117v510q0 33 1 58.5t3 47.5h-2q-10 -25 -23.5 -48.5t-31.5 -51.5l-182 -285h-76l-193 285q-35 49 -55 100h-2q2 -23 3 -48.5 t1 -57.5v-510h-119z" />
<glyph unicode="&#x25fc;" horiz-adv-x="972" d="M0 0v973h973v-973h-973z" />
<glyph unicode="&#xfb01;" horiz-adv-x="1087" d="M82 842v127h121v172q0 94 27.5 154.5t69.5 94t91 47t94 13.5q80 0 144 -33l-31 -121q-53 29 -117 29q-129 0 -129 -170v-186h252l-53 -127h-199v-842h-149v842h-121zM747.5 1276q0.5 43 30.5 74q31 31 74 31t74 -31t30.5 -74t-30.5 -74q-31 -31 -74 -31t-74 31t-30.5 74z M778 0v969h150v-969h-150z" />
<glyph unicode="&#xfb02;" horiz-adv-x="1075" d="M82 842v127h121v172q0 94 27.5 154.5t69.5 94t91 47t94 13.5q80 0 144 -33l-31 -121q-53 29 -117 29q-129 0 -129 -170v-186h252l-53 -127h-199v-842h-149v842h-121zM748 158v1292h149v-1225q0 -68 17.5 -89t62.5 -21q27 0 51 6l19 -109q-63 -33 -129 -32q-86 0 -128 48 t-42 130z" />
</font>
</defs>
</svg>
